<svg id="Layer_1" xmlns="http://www.w3.org/2000/svg" viewBox="0 0 205 205"><style>.st0{fill:#a3a3a3}</style><path class="st0" d="M102.5 0C46 0 0 46 0 102.5c0 2 .2 4 .3 5.9h61.6V67.7L81 91.6l19.2-23.9v40.7h43.3c7.1 0 8.4 3.9 8.4 6.8 0 3-1.6 6.8-8.4 6.8h-43.3v38.3h42.4c18 0 23.6-8.2 23.6-18.3 0-7.6-4.2-13.4-10.8-14.9 4.9-2 8.4-6.5 8.4-13.6 0-6.3-3.1-17-21.6-17h-29.4v-52h-7.5L81 75.1 56.8 44.6h-7.5v52H12.2c3.1-47.3 42.3-84.7 90.3-84.7 50.1 0 90.7 40.6 90.7 90.7s-40.6 90.7-90.7 90.7c-44 0-80.6-31.3-88.9-72.9h-12c8.5 48.1 50.4 84.7 100.9 84.7C159 205 205 159 205 102.5S159 0 102.5 0m51.9 140.7c0 4.1-2.3 7.7-9.1 7.7h-32.5v-15.5h32.5c6.6 0 9.1 3.8 9.1 7.8"/></svg>