<svg id="Layer_2" xmlns="http://www.w3.org/2000/svg" viewBox="0 0 650 225"><style>.st0{fill:#fff}</style><path class="st0" d="M93.1 19.4C41.8 19.4 0 61.2 0 112.5c0 1.8.2 3.6.3 5.4h55.9v-37l17.4 21.7 17.5-21.7v37h39.3c6.5 0 7.6 3.6 7.6 6.2 0 2.7-1.5 6.2-7.6 6.2H91.1v34.8h38.5c16.3 0 21.4-7.5 21.4-16.6 0-6.9-3.8-12.2-9.9-13.6 4.5-1.8 7.6-5.9 7.6-12.3 0-5.7-2.8-15.4-19.6-15.4h-26.7V59.9h-6.8l-22 27.7-22-27.7h-6.8v47.2H11c2.8-43 38.4-77 82.1-77 45.5 0 82.3 36.9 82.3 82.3 0 45.5-36.9 82.3-82.3 82.3-39.9 0-73.2-28.5-80.7-66.2H1.5c7.7 43.7 45.8 77 91.6 77 51.3 0 93.1-41.8 93.1-93.1s-41.8-93-93.1-93m47.2 127.8c0 3.7-2.1 7-8.3 7h-29.5v-14.1H132c5.9.1 8.3 3.4 8.3 7.1m172.4-75l3.6 3.5v76.8h-10.9V82h-2.3L281 152.5h-14.9l-22-70.5h-2.4v70.5h-10.9V75.7l3.6-3.5h17.4l21 70.5h1.6l21-70.5h17.3zm47.8 22.9c3 0 4.7.7 6.9 2.8l4.7 4.6c2.1 2.1 2.9 3.8 2.9 6.8v29c0 3-.7 4.7-2.9 6.8l-4.7 4.6c-2.2 2.1-3.9 2.8-6.9 2.8h-18.1c-3 0-4.7-.7-6.9-2.8l-4.7-4.6c-2.1-2.1-2.9-3.8-2.9-6.8v-29c0-3 .7-4.7 2.9-6.8l4.7-4.6c2.2-2.1 3.9-2.8 6.9-2.8h18.1zm.4 9.8c-.5-.5-1.4-.9-2.3-.9h-14.3c-.9 0-1.8.4-2.3.9l-2.9 2.8c-.6.6-1 1.4-1 2.2v27.8c0 .8.3 1.5 1 2.2l2.9 2.8c.5.5 1.4.9 2.3.9h14.3c.9 0 1.8-.4 2.3-.9l2.9-2.8c.6-.6 1-1.4 1-2.2v-27.8c0-.8-.3-1.5-1-2.2l-2.9-2.8zm34.8-34.7v67.4c0 .8.4 1.6 1 2.1l2.9 2.9c.5.4 1.3.9 2.3.9h6.4v8.9H400c-3 0-4.7-.7-6.9-2.8l-4.2-4.1c-2.5-2.4-3.3-4.1-3.3-7.3V73.1l2.9-2.8h7.2zm31 0v67.4c0 .8.4 1.6 1 2.1l2.9 2.9c.5.4 1.3.9 2.3.9h6.4v8.9H431c-3 0-4.7-.7-6.9-2.8l-4.2-4.1c-2.5-2.4-3.3-4.1-3.3-7.3V73.1l2.9-2.8h7.2zm61.8 24.9l4.4 2-19.8 56.3c-2 5.3-6.9 18.5-23.2 20.6l-1.4-8c8.5-1.4 11.1-5.3 13.2-10.3l1.1-3.2H459l-19.5-55.3 4.4-2h5.5l16.1 48.4h1.2L483 95.2l5.5-.1zm50.4-22.9c3 0 4.7.7 6.9 2.8l4.7 4.6c2.1 2.1 2.9 3.8 2.9 6.8v16.5c0 2.6-.7 4.3-1.8 5.7l-1.4 1.4c-.1.1-.2.3-.2.4 0 .1.1.3.2.4l4 3.9c2.1 2.1 2.9 3.8 2.9 6.8v16.9c0 3-.7 4.7-2.9 6.8l-4.7 4.6c-2.2 2.1-3.9 2.8-6.9 2.8h-41V75.7l3.6-3.5h33.7zm-.2 10.7c-.5-.5-1.5-.9-2.3-.9h-23.7v25.2h23.7c.9 0 1.8-.4 2.3-.9l2.9-2.8c.6-.6 1-1.4 1-2.2V87.9c0-.8-.3-1.6-1-2.2l-2.9-2.8zm3.8 35c-.5-.5-1.5-.9-2.3-.9h-27.5v25.7h27.5c.9 0 1.8-.4 2.3-.9l2.9-2.8c.6-.6 1-1.4 1-2.2v-13.9c0-.8-.3-1.6-1-2.2l-2.9-2.8zm54.4-22.8c3 0 4.7.7 6.9 2.8l4.7 4.6c2.1 2.1 2.9 3.8 2.9 6.8v15.5l-2.9 2.8H576v10.1c0 .8.3 1.5 1 2.2l2.9 2.8c.5.5 1.4.9 2.3.9H595c.9 0 1.8-.4 2.3-.9l3.8-3.7 6.8 6.6-4.1 4c-2.2 2.1-3.9 2.8-6.9 2.8h-16.6c-3 0-4.7-.7-6.9-2.8l-4.7-4.6c-2.1-2.1-2.9-3.8-2.9-6.8v-29c0-3 .7-4.7 2.9-6.8l4.7-4.6c2.2-2.1 3.9-2.8 6.9-2.8l16.6.1zm.4 9.8c-.5-.5-1.4-.9-2.3-.9h-12.8c-.9 0-1.8.4-2.3.9l-2.9 2.8c-.6.6-1 1.4-1 2.2v8.8h25.1v-8.8c0-.8-.3-1.5-1-2.2l-2.8-2.8zm39.9-23v13.2H650v8.9h-12.8v33.7c0 .8.3 1.5 1 2.2l2.9 2.8c.5.5 1.4.9 2.3.9h6.6v6.2l-2.9 2.7h-5.6c-3 0-4.7-.7-6.9-2.8l-4.7-4.6c-2.1-2.1-2.9-3.8-2.9-6.8V104h-9v-6.2l2.9-2.8h6.1V81.9h10.2z"/></svg>