<svg id="Layer_1" xmlns="http://www.w3.org/2000/svg" viewBox="0 0 50 50"><style>.st0{fill:#f6f6f6}</style><path class="st0" d="M14.1 39.1c3 2.3 6.8 3.7 10.9 3.7 4.1 0 7.9-1.4 10.9-3.8-2.3 3-3.8 6.8-3.8 10.9h10.8v-6.1l3.3 4.2 3.3-4.2V50h.5v-9.5l-3.7 4.7-4.3-5.3h-1.3V49h-6.5c.5-8.2 7.4-14.7 15.7-14.7v-2.1c-4.1 0-7.9 1.4-10.9 3.8 2.3-3 3.8-6.8 3.8-10.9 0-4.1-1.4-7.9-3.7-10.9 3 2.3 6.8 3.7 10.9 3.7v-2.1c-7.7 0-14-5.4-15.5-12.7h-2.1c.5 2.9 1.7 5.5 3.5 7.8-3-2.3-6.8-3.7-10.9-3.7-4.1 0-7.9 1.4-10.9 3.8 2.3-3 3.8-6.8 3.8-10.9h-2.1c0 8.7-7.1 15.8-15.8 15.8V18c4.1 0 7.9-1.4 10.9-3.8-2.3 3-3.8 6.8-3.8 10.9 0 .3 0 .7.1 1h10.7V19l3.3 4.2 3.3-4.2v7H32c1.2 0 1.5.7 1.5 1.2s-.3 1.2-1.5 1.2h-7.5v6.7H32c3.1 0 4.1-1.4 4.1-3.2 0-1.3-.7-2.3-1.9-2.6.9-.3 1.5-1.1 1.5-2.4 0-1.1-.5-3-3.8-3h-5.1v-9.1h-1.3l-4.2 5.3-4.3-5.2h-1.3V24H9.3C9.8 15.7 16.6 9.2 25 9.2c8.7 0 15.8 7.1 15.8 15.8 0 8.7-7.1 15.8-15.8 15.8-7.7 0-14-5.4-15.5-12.7H7.4c.5 2.9 1.7 5.5 3.5 7.8-3-2.3-6.8-3.7-10.9-3.7v2.1c8.7 0 15.8 7.1 15.8 15.8h2.1c-.1-4.2-1.5-8-3.8-11zM34 31.6c0 .7-.4 1.3-1.6 1.3h-5.7v-2.7h5.7c1.2.1 1.6.7 1.6 1.4zM42.9 1V0H32.2c0 .3 0 .7.1 1h10.6zM1.8 48.9v-9.1H.5l-.5.7V50h10c-.5-.6-1.5-1.1-3.1-1.1H1.8zM49.6 3.4h.4v6.7h-.4zm0-3.4h.4v1h-.4z"/><path class="st0" d="M11.1 6.9c0-1.3-.7-2.3-1.9-2.6.9-.3 1.5-1.1 1.5-2.4 0-.6-.1-1.3-.7-1.9H0v1h7.1c1.2 0 1.5.7 1.5 1.2s-.3 1.2-1.5 1.2H0v6.7h7c3.1 0 4.1-1.5 4.1-3.2zM1.8 5.3h5.7c1.1 0 1.5.6 1.5 1.3C9 7.4 8.6 8 7.5 8H1.8V5.3z"/></svg>